<?xml version="1.0" encoding="utf-8"?>
<!-- Generator: Adobe Illustrator 19.1.0, SVG Export Plug-In . SVG Version: 6.00 Build 0)  -->
<svg version="1.1" id="Lager_1" xmlns="http://www.w3.org/2000/svg" xmlns:xlink="http://www.w3.org/1999/xlink" x="0px" y="0px"
	 viewBox="0 0 283.5 283.5" style="enable-background:new 0 0 283.5 283.5;" xml:space="preserve">
<style type="text/css">
	.st0{fill:#74D874;}
</style>
<g>
	<path class="st0" d="M214.6,143.5c-2.2,40.2-35.6,72.3-76.4,72.3c-40.8,0-74.2-32-76.4-72.3H56c2.2,43.4,38.2,78,82.2,78
		c43.9,0,79.9-34.6,82.2-78H214.6z"/>
	<path class="st0" d="M138.2,62.7c40.7,0,74.1,32,76.4,72.2h5.8c-2.3-43.4-38.2-77.9-82.2-77.9c-43.9,0-79.9,34.6-82.2,77.9h5.8
		C64,94.7,97.4,62.7,138.2,62.7z"/>
	<path class="st0" d="M138.2,71.5c-35.9,0-65.3,28-67.5,63.4h8.6c2.2-30.6,27.8-54.7,58.9-54.7s56.7,24.2,58.9,54.7h8.6
		C203.5,99.5,174.1,71.5,138.2,71.5z"/>
	<path class="st0" d="M138.2,198.3c-31.1,0-56.7-24.2-58.9-54.8h-8.6c2.2,35.3,31.7,63.4,67.5,63.4s65.3-28.1,67.6-63.4h-8.6
		C194.9,174.1,169.3,198.3,138.2,198.3z"/>
	<path class="st0" d="M138.2,94.8c23,0,42,17.6,44.2,40.1h5.8c-2.2-25.6-23.8-45.8-49.9-45.8s-47.7,20.2-49.9,45.8H94
		C96.2,112.4,115.2,94.8,138.2,94.8z"/>
	<path class="st0" d="M138.2,189.3c26.2,0,47.8-20.2,49.9-45.9h-5.8c-2.2,22.5-21.1,40.1-44.2,40.1c-23,0-42-17.6-44.2-40.1h-5.8
		C90.4,169.1,112,189.3,138.2,189.3z"/>
</g>
</svg>
